<svg width="33" height="33" viewBox="0 0 33 33" fill="none" xmlns="http://www.w3.org/2000/svg">
<circle cx="16.2" cy="16.2" r="16.2" fill="#34A0FF"/>
<path d="M26.92 10C26.15 10.35 25.32 10.58 24.46 10.69C25.34 10.16 26.02 9.32 26.34 8.31C25.51 8.81 24.59 9.16 23.62 9.36C22.83 8.5 21.72 8 20.46 8C18.11 8 16.19 9.92 16.19 12.29C16.19 12.63 16.23 12.96 16.3 13.27C12.74 13.09 9.57 11.38 7.46 8.79C7.09 9.42 6.88 10.16 6.88 10.94C6.88 12.43 7.63 13.75 8.79 14.5C8.08 14.5 7.42 14.3 6.84 14V14.03C6.84 16.11 8.32 17.85 10.28 18.24C9.65084 18.4129 8.99004 18.4369 8.35 18.31C8.62161 19.1625 9.15354 19.9084 9.87102 20.4429C10.5885 20.9775 11.4554 21.2737 12.35 21.29C10.8337 22.4905 8.95401 23.1394 7.02 23.13C6.68 23.13 6.34 23.11 6 23.07C7.9 24.29 10.16 25 12.58 25C20.46 25 24.79 18.46 24.79 12.79C24.79 12.6 24.79 12.42 24.78 12.23C25.62 11.63 26.34 10.87 26.92 10Z" fill="white"/>
</svg>
