<svg width="20" height="16" viewBox="0 0 20 16" fill="none" xmlns="http://www.w3.org/2000/svg">
<path d="M19.2928 5.48079C20.4891 4.5238 19.9436 3.40604 19.2928 2.86247L16.4217 0.565698C15.2159 -0.39129 13.8282 0.0450961 13.1487 0.565698L11.5217 1.87486H9.04296C7.22459 1.87486 6.17185 2.64045 5.63591 3.52088L1.38666 6.9201V9.98246L0.707159 10.5184C-0.489139 11.483 0.056373 12.5931 0.707159 13.1367L3.57827 15.4335C4.09507 15.8469 4.65016 16 5.17653 16C5.85602 16 6.4781 15.732 6.85134 15.4335L9.43535 13.3587H12.8711C14.4981 13.3587 15.3211 12.5472 15.6178 11.751C16.6993 11.5213 17.2926 10.8629 17.5319 10.2198C19.0153 9.91356 19.5704 8.78814 19.5704 7.99958V5.70281H19.0057L19.2928 5.48079ZM17.6563 7.99958C17.6563 8.3441 17.4745 8.76517 16.6993 8.76517H15.7422V9.53076C15.7422 9.87528 15.5604 10.2964 14.7852 10.2964H13.8282V11.0619C13.8282 11.4065 13.6463 11.8275 12.8711 11.8275H8.65058L5.51149 14.3387C5.21481 14.5607 5.04254 14.4305 4.93727 14.3463L2.07572 12.0649C1.79818 11.8275 1.96088 11.6897 2.06615 11.6055L3.30073 10.6102V7.54788L5.21481 6.0167V7.23399C5.21481 8.16035 5.98044 9.53076 8.08592 9.53076C10.1914 9.53076 10.957 8.16035 10.957 7.23399H17.6563V7.99958ZM17.9338 4.39365L16.3069 5.70281H9.04296V7.23399C9.04296 7.57851 8.86113 7.99958 8.08592 7.99958C7.31072 7.99958 7.12889 7.57851 7.12889 7.23399V4.93722C7.12889 4.58505 7.29158 3.40604 9.04296 3.40604H12.3065L14.4885 1.66049C14.7852 1.43847 14.9575 1.56862 15.0627 1.65284L17.9243 3.9343C18.2018 4.17163 18.0391 4.30943 17.9338 4.39365Z" fill="black"/>
</svg>
