<svg width="20" height="16" viewBox="0 0 20 16" fill="none" xmlns="http://www.w3.org/2000/svg">
<path d="M14.7706 14.5C15.1163 14.5 15.4478 14.342 15.6922 14.0607C15.9366 13.7794 16.0739 13.3978 16.0739 13C16.0739 12.6022 15.9366 12.2206 15.6922 11.9393C15.4478 11.658 15.1163 11.5 14.7706 11.5C14.425 11.5 14.0935 11.658 13.8491 11.9393C13.6046 12.2206 13.4673 12.6022 13.4673 13C13.4673 13.3978 13.6046 13.7794 13.8491 14.0607C14.0935 14.342 14.425 14.5 14.7706 14.5ZM15.2051 5.5H13.9018V8H17.7769L15.2051 5.5ZM4.3443 14.5C4.68995 14.5 5.02145 14.342 5.26587 14.0607C5.51028 13.7794 5.64759 13.3978 5.64759 13C5.64759 12.6022 5.51028 12.2206 5.26587 11.9393C5.02145 11.658 4.68995 11.5 4.3443 11.5C3.99865 11.5 3.66715 11.658 3.42273 11.9393C3.17832 12.2206 3.04101 12.6022 3.04101 13C3.04101 13.3978 3.17832 13.7794 3.42273 14.0607C3.66715 14.342 3.99865 14.5 4.3443 14.5ZM15.4245 4C16.1006 4 16.731 4.34161 17.1001 4.90809L18.7905 7.50222C19.0022 7.82706 19.1149 8.20642 19.1149 8.59414V13H17.3772C17.3772 13.7956 17.1026 14.5587 16.6138 15.1213C16.1249 15.6839 15.4619 16 14.7706 16C14.0793 16 13.4163 15.6839 12.9275 15.1213C12.4387 14.5587 12.164 13.7956 12.164 13H6.95088C6.95088 13.7956 6.67626 14.5587 6.18743 15.1213C5.6986 15.6839 5.03561 16 4.3443 16C3.65299 16 2.99 15.6839 2.50117 15.1213C2.01234 14.5587 1.73772 13.7956 1.73772 13C0.778004 13 0 12.222 0 11.2623V2C0 0.89 0.773285 0 1.73772 0H11.9018C13.0063 0 13.9018 0.895431 13.9018 2V4H15.4245ZM6.08202 2V5H3.47544V7H6.08202V10H7.81974V7H10.4263V5H7.81974V2H6.08202Z" fill="black"/>
<rect x="17.3906" y="12" width="2.60682" height="1" fill="black"/>
</svg>
