<svg width="33" height="33" viewBox="0 0 33 33" fill="none" xmlns="http://www.w3.org/2000/svg">
<circle cx="16.2" cy="16.2" r="16.2" fill="black"/>
<path d="M20.44 9.82C19.7566 9.03953 19.3799 8.0374 19.38 7H16.29V19.4C16.2667 20.0712 15.9835 20.7071 15.5003 21.1735C15.0171 21.6399 14.3716 21.9004 13.7 21.9C12.28 21.9 11.1 20.74 11.1 19.3C11.1 17.58 12.76 16.29 14.47 16.82V13.66C11.02 13.2 8 15.88 8 19.3C8 22.63 10.76 25 13.69 25C16.83 25 19.38 22.45 19.38 19.3V13.01C20.633 13.9099 22.1374 14.3926 23.68 14.39V11.3C23.68 11.3 21.8 11.39 20.44 9.82Z" fill="white"/>
</svg>
