<svg width="23" height="18" viewBox="0 0 23 18" fill="none" xmlns="http://www.w3.org/2000/svg">
<path d="M19.2211 2.61904C18.1844 1.78574 16.9496 1.12502 15.5889 0.675373C14.2281 0.225731 12.7686 -0.00383684 11.2952 4.85055e-05C5.12186 4.85055e-05 0.0904524 4.00504 0.0904524 8.91902C0.0904524 10.494 0.610553 12.024 1.58291 13.374L0 18L5.93593 16.758C7.57538 17.469 9.41834 17.847 11.2952 17.847C17.4686 17.847 22.5 13.842 22.5 8.92803C22.5 6.54303 21.3354 4.30204 19.2211 2.61904ZM11.2952 16.335C9.62186 16.335 7.98241 15.975 6.54648 15.3L6.20729 15.138L2.67965 15.876L3.61809 13.14L3.39196 12.861C2.46205 11.6794 1.96838 10.3134 1.96734 8.91902C1.96734 4.83304 6.15075 1.50304 11.2839 1.50304C13.7714 1.50304 16.1118 2.27704 17.8643 3.68104C18.7322 4.36851 19.42 5.18632 19.8878 6.08703C20.3555 6.98773 20.5939 7.9534 20.5892 8.92803C20.6118 13.014 16.4284 16.335 11.2952 16.335ZM16.4058 10.791C16.1231 10.683 14.7437 10.143 14.495 10.062C14.2349 9.99002 14.054 9.95402 13.8618 10.17C13.6696 10.395 13.1382 10.899 12.9799 11.043C12.8216 11.196 12.652 11.214 12.3693 11.097C12.0867 10.989 11.1822 10.746 10.1193 9.99002C9.28266 9.39602 8.72864 8.66703 8.55904 8.44203C8.40075 8.21703 8.53643 8.10003 8.68342 7.98303C8.80779 7.88403 8.96608 7.72203 9.10176 7.59603C9.23744 7.47003 9.29397 7.37103 9.38442 7.22703C9.47487 7.07403 9.42965 6.94803 9.36181 6.84003C9.29397 6.73203 8.72864 5.63403 8.50251 5.18403C8.27638 4.75204 8.03894 4.80604 7.86935 4.79704H7.32663C7.13442 4.79704 6.84045 4.85104 6.5804 5.07604C6.33166 5.30103 5.60804 5.84103 5.60804 6.93903C5.60804 8.03703 6.61432 9.09903 6.75 9.24302C6.88568 9.39602 8.72864 11.646 11.5327 12.609C12.1997 12.843 12.7198 12.978 13.1269 13.077C13.794 13.248 14.4045 13.221 14.8907 13.167C15.4334 13.104 16.5528 12.627 16.7789 12.105C17.0163 11.583 17.0163 11.142 16.9372 11.043C16.858 10.944 16.6884 10.899 16.4058 10.791Z" fill="black"/>
</svg>
