<svg width="50" height="50" viewBox="0 0 50 50" fill="none" xmlns="http://www.w3.org/2000/svg">
<path d="M47.0833 50C41.2963 50 35.5787 48.7389 29.9306 46.2167C24.2824 43.6944 19.1435 40.1176 14.5139 35.4861C9.88426 30.8546 6.30833 25.7157 3.78611 20.0694C1.26389 14.4231 0.00185185 8.70556 0 2.91667C0 2.08333 0.277778 1.38889 0.833333 0.833333C1.38889 0.277778 2.08333 0 2.91667 0H14.1667C14.8148 0 15.3935 0.22037 15.9028 0.661111C16.412 1.10185 16.713 1.62222 16.8056 2.22222L18.6111 11.9444C18.7037 12.6852 18.6806 13.3102 18.5417 13.8194C18.4028 14.3287 18.1481 14.7685 17.7778 15.1389L11.0417 21.9444C11.9676 23.6574 13.0667 25.312 14.3389 26.9083C15.6111 28.5046 17.012 30.0444 18.5417 31.5278C19.9769 32.963 21.4815 34.2944 23.0556 35.5222C24.6296 36.75 26.2963 37.8722 28.0556 38.8889L34.5833 32.3611C35 31.9444 35.5444 31.6324 36.2167 31.425C36.8889 31.2176 37.5481 31.1593 38.1944 31.25L47.7778 33.1944C48.4259 33.3796 48.9583 33.7157 49.375 34.2028C49.7917 34.6898 50 35.2333 50 35.8333V47.0833C50 47.9167 49.7222 48.6111 49.1667 49.1667C48.6111 49.7222 47.9167 50 47.0833 50Z" fill="black"/>
</svg>
